<?xml version="1.0" encoding="utf-8"?>
<!-- Generator: Adobe Illustrator 19.0.0, SVG Export Plug-In . SVG Version: 6.00 Build 0)  -->
<svg version="1.1" id="Layer_1" xmlns="http://www.w3.org/2000/svg" xmlns:xlink="http://www.w3.org/1999/xlink" x="0px" y="0px"
	 viewBox="0 0 375.1 222.7" style="enable-background:new 0 0 375.1 222.7;" xml:space="preserve">
<style type="text/css">
	#XMLID_2_{fill:#fbcf00;}
	.st0{fill:#000;stroke:#000;stroke-miterlimit:10;}
</style>
<path id="XMLID_2_" d="M0,222.7c0,0,28-56.7,83.3-76l15.3-60c0,0,102.7-28,158-86.7c0,0,74.7,22.7,81.3,71.3c0,0,0.5-35.7,33.2-30.3
	c0,0-18.5,11.7-20.5,34.3c0,0,17.3,1.3,18.7,6.7c1.3,5.3,15.3,45.3-6,62C342,160.7,342,160.7,342,160.7S326,128,299.3,128
	c0,0,19.3,22.7,15.3,59.3C314.7,187.3,217.3,130.7,0,222.7z"/>
<path id="XMLID_3_" class="st0" d="M338.8,99.4c0,0,6.8,12.9,20.3,3.9L338.8,99.4z"/>
</svg>
